# Blender 5.0.0
# www.blender.org
mtllib hcp_odd.mtl
o HPC_Shape_Uint_Odd.006
v 1.000000 0.577350 0.408248
v -0.000000 -0.000000 1.224745
v 1.000000 0.577350 0.816497
v -1.000000 0.577350 -0.406871
v -0.000000 1.154701 -0.406871
v -0.000000 -0.000000 -1.224745
v -1.000000 0.577350 -0.816497
v -0.000000 -1.154700 -0.406871
v 1.000000 -0.577350 -0.406871
v -1.000000 -0.577350 -0.415135
v 0.000000 -1.154700 -0.816497
v 1.000000 0.577350 -0.406871
v 1.000000 0.577350 -0.816497
v -1.000000 0.577350 0.408248
v -0.000000 1.154700 0.408248
v -1.000000 0.577350 0.816497
v -0.000000 -1.154700 0.408248
v 1.000000 -0.577350 0.408248
v -1.000000 -0.577350 0.408248
v 0.000000 -1.154700 0.816497
vn 0.5000 0.8660 -0.0000
vn 0.5000 -0.8660 -0.0000
vn 1.0000 -0.0000 -0.0000
vn -0.0000 0.5774 0.8165
vn -0.4986 -0.2846 -0.8188
vn -1.0000 -0.0000 -0.0000
vn -0.4958 -0.2895 -0.8188
vn -0.5000 0.8660 -0.0000
vn 0.0006 0.5780 -0.8160
vn 0.5008 -0.2885 -0.8160
vn -0.5000 -0.8660 -0.0000
vn -0.0006 0.5780 -0.8160
vn 0.5003 -0.2895 -0.8160
vn -0.5000 -0.2887 0.8165
vn 0.5000 -0.2887 0.8165
vt 0.000000 0.000000
s 0
f 3/1/1 1/1/1 15/1/1
f 9/1/2 17/1/2 8/1/2
f 18/1/3 9/1/3 1/1/3
f 3/1/4 15/1/4 2/1/4
f 6/1/5 10/1/5 7/1/5
f 4/1/6 7/1/6 10/1/6
f 6/1/7 11/1/7 10/1/7
f 4/1/8 5/1/8 7/1/8
f 6/1/9 7/1/9 5/1/9
f 12/1/1 5/1/1 1/1/1
f 11/1/2 9/1/2 8/1/2
f 9/1/3 12/1/3 1/1/3
f 11/1/10 6/1/10 9/1/10
f 8/1/11 10/1/11 11/1/11
f 4/1/6 10/1/6 14/1/6
f 13/1/1 5/1/1 12/1/1
f 17/1/2 9/1/2 18/1/2
f 19/1/11 10/1/11 17/1/11
f 13/1/12 6/1/12 5/1/12
f 12/1/3 9/1/3 13/1/3
f 6/1/13 13/1/13 9/1/13
f 15/1/1 1/1/1 5/1/1
f 2/1/14 16/1/14 19/1/14
f 14/1/8 15/1/8 5/1/8
f 14/1/6 19/1/6 16/1/6
f 14/1/8 16/1/8 15/1/8
f 2/1/4 15/1/4 16/1/4
f 5/1/8 4/1/8 14/1/8
f 20/1/2 17/1/2 18/1/2
f 14/1/6 10/1/6 19/1/6
f 10/1/11 8/1/11 17/1/11
f 2/1/15 18/1/15 3/1/15
f 17/1/11 20/1/11 19/1/11
f 2/1/14 19/1/14 20/1/14
f 20/1/15 18/1/15 2/1/15
f 1/1/3 3/1/3 18/1/3
